<?xml version="1.0" encoding="UTF-8" standalone="no"?>
<svg height="24" width="24" version="1.1" id="svg20" xml:space="preserve" xmlns="http://www.w3.org/2000/svg"
    xmlns:svg="http://www.w3.org/2000/svg">
    <defs id="defs24" />
    <path d="m 1.521115,22.201324 h 20.95777 V 7.1417781 L 17.48894,1.521115 H 1.521115 Z" fill="#ffffff"
        fill-rule="evenodd" stroke="#727272" stroke-linejoin="round" id="path2" style="stroke-width:1.04223" />
    <path d="m22.619 6.568h-5v-5z" fill="#f0f0f0" fill-rule="evenodd" stroke="#727272" stroke-linejoin="round"
        id="path8" />
    <g transform="matrix(0.14368809,0,0,0.14368809,2.4319852,-20.415133)" id="layer1">
        <g transform="matrix(5.7998892,0,0,5.7998892,-3.4422699,161.43163)" id="g829">
            <path style="fill:none" d="M 0,0 H 24 V 24 H 0 Z" id="path815" />
            <path
                d="M 17,9.2 22.213,5.55 C 22.544573,5.3175742 23.000464,5.55508 23,5.96 v 12.08 c 4.64e-4,0.404922 -0.455427,0.642426 -0.787,0.41 L 17,14.8 V 19 c 0,0.552285 -0.447715,1 -1,1 H 2 C 1.4477153,20 1,19.552285 1,19 V 5 C 1,4.4477153 1.4477153,4 2,4 h 14 c 0.552285,0 1,0.4477153 1,1 z m 0,3.159 4,2.8 V 8.84 l -4,2.8 v 0.718 z M 3,6 V 18 H 15 V 6 Z"
                id="path817" />
        </g>
        <g transform="matrix(2.8999446,0,0,2.8999444,13.957398,196.23097)" id="g868">
            <path style="fill:none" d="M 0,0 H 24 V 24 H 0 Z" id="path854" />
            <path style="fill:#d40000"
                d="m 2.213,14.06 a 9.945,9.945 0 0 1 0,-4.12 C 3.323,10.07 4.293,9.703 4.609,8.939 4.926,8.174 4.501,7.229 3.623,6.536 A 9.945,9.945 0 0 1 6.536,3.623 C 7.228,4.5 8.174,4.926 8.939,4.609 9.704,4.292 10.071,3.323 9.94,2.213 a 9.945,9.945 0 0 1 4.12,0 c -0.13,1.11 0.237,2.08 1.001,2.396 0.765,0.317 1.71,-0.108 2.403,-0.986 a 9.945,9.945 0 0 1 2.913,2.913 c -0.877,0.692 -1.303,1.638 -0.986,2.403 0.317,0.765 1.286,1.132 2.396,1.001 a 9.945,9.945 0 0 1 0,4.12 c -1.11,-0.13 -2.08,0.237 -2.396,1.001 -0.317,0.765 0.108,1.71 0.986,2.403 a 9.945,9.945 0 0 1 -2.913,2.913 c -0.692,-0.877 -1.638,-1.303 -2.403,-0.986 -0.765,0.317 -1.132,1.286 -1.001,2.396 a 9.945,9.945 0 0 1 -4.12,0 c 0.13,-1.11 -0.237,-2.08 -1.001,-2.396 -0.765,-0.317 -1.71,0.108 -2.403,0.986 A 9.945,9.945 0 0 1 3.623,17.464 C 4.5,16.772 4.926,15.826 4.609,15.061 4.292,14.296 3.323,13.929 2.213,14.06 Z M 4,12.21 c 1.1,0.305 2.007,1.002 2.457,2.086 0.449,1.085 0.3,2.22 -0.262,3.212 0.096,0.102 0.195,0.201 0.297,0.297 0.993,-0.562 2.127,-0.71 3.212,-0.262 1.084,0.45 1.781,1.357 2.086,2.457 0.14,0.004 0.28,0.004 0.42,0 0.305,-1.1 1.002,-2.007 2.086,-2.457 1.085,-0.449 2.22,-0.3 3.212,0.262 0.102,-0.096 0.201,-0.195 0.297,-0.297 -0.562,-0.993 -0.71,-2.127 -0.262,-3.212 0.45,-1.084 1.357,-1.781 2.457,-2.086 0.004,-0.14 0.004,-0.28 0,-0.42 -1.1,-0.305 -2.007,-1.002 -2.457,-2.086 -0.449,-1.085 -0.3,-2.22 0.262,-3.212 A 7.935,7.935 0 0 0 17.508,6.195 C 16.515,6.757 15.381,6.905 14.296,6.457 13.212,6.007 12.515,5.1 12.21,4 A 7.935,7.935 0 0 0 11.79,4 C 11.485,5.1 10.788,6.007 9.704,6.457 8.619,6.906 7.484,6.757 6.492,6.195 6.39,6.291 6.291,6.39 6.195,6.492 6.757,7.485 6.905,8.619 6.457,9.704 6.007,10.788 5.1,11.485 4,11.79 3.996,11.93 3.996,12.07 4,12.21 Z M 12,15 a 3,3 0 1 1 0,-6 3,3 0 0 1 0,6 z m 0,-2 a 1,1 0 1 0 0,-2 1,1 0 0 0 0,2 z"
                id="path856" />
        </g>
    </g>
</svg>