<?xml version="1.0" encoding="UTF-8" standalone="no"?>
<svg xmlns:dc="http://purl.org/dc/elements/1.1/" xmlns:cc="http://creativecommons.org/ns#"
    xmlns:rdf="http://www.w3.org/1999/02/22-rdf-syntax-ns#" xmlns:svg="http://www.w3.org/2000/svg"
    xmlns="http://www.w3.org/2000/svg" id="svg8" version="1.1" viewBox="0 0 100 100" height="500" width="500">
    <defs id="defs2" />
    <metadata id="metadata5">
        <rdf:RDF>
            <cc:Work rdf:about="">
                <dc:format>image/svg+xml</dc:format>
                <dc:type rdf:resource="http://purl.org/dc/dcmitype/StillImage" />
                <dc:title></dc:title>
            </cc:Work>
        </rdf:RDF>
    </metadata>
    <g transform="rotate(0 50 50)">
        <line x1="50" y1="5" x2="50" y2="95" stroke="#d40000" />
    </g>
    <g transform="rotate(20 50 50)">
        <line x1="50" y1="5" x2="50" y2="95" stroke="#d40000" />
    </g>
    <g transform="rotate(40 50 50)">
        <line x1="50" y1="5" x2="50" y2="95" stroke="#d40000" />
    </g>
    <g transform="rotate(60 50 50)">
        <line x1="50" y1="5" x2="50" y2="95" stroke="#d40000" />
    </g>
    <g transform="rotate(80 50 50)">
        <line x1="50" y1="5" x2="50" y2="95" stroke="#d40000" />
    </g>
    <g transform="rotate(100 50 50)">
        <line x1="50" y1="5" x2="50" y2="95" stroke="#d40000" />
    </g>
    <g transform="rotate(120 50 50)">
        <line x1="50" y1="5" x2="50" y2="95" stroke="#d40000" />
    </g>
    <g transform="rotate(140 50 50)">
        <line x1="50" y1="5" x2="50" y2="95" stroke="#d40000" />
    </g>
    <g transform="rotate(160 50 50)">
        <line x1="50" y1="5" x2="50" y2="95" stroke="#d40000" />
    </g>
</svg>